HIERARCHY
ROOT pelvis
{
  OFFSET 0 100 0
  CHANNELS 6 Xposition Yposition Zposition Zrotation Xrotation Yrotation
  JOINT pelvis_right_femur
  {
    OFFSET -10.78128 -3.44521 -0.5502486
    CHANNELS 3 Zrotation Xrotation Yrotation
    JOINT right_femur_tibia
    {
      OFFSET -0.8047443 -44.0398 -0.1307829
      CHANNELS 3 Zrotation Xrotation Yrotation
      JOINT right_tibia_foot
      {
        OFFSET 3.006224 -47.83518 -5
        CHANNELS 3 Zrotation Xrotation Yrotation
        End Site
        {
          OFFSET 0 -5 15
        }
      }
    }
  }
  JOINT pelvis_left_femur
  {
    OFFSET 10.78128 -3.44521 -0.5502486
    CHANNELS 3 Zrotation Xrotation Yrotation
    JOINT left_femur_tibia
    {
      OFFSET 0.8047443 -44.0398 -0.1307829
      CHANNELS 3 Zrotation Xrotation Yrotation
      JOINT left_tibia_foot
      {
        OFFSET -4.370144 -48.10324 -4.275266
        CHANNELS 3 Zrotation Xrotation Yrotation
        End Site
        {
          OFFSET 0 -5 15
        }
      }
    }
  }
  JOINT pelvis_spine1
  {
    OFFSET 0 6.468898 -3.129235
    CHANNELS 3 Zrotation Xrotation Yrotation
    JOINT spine1
    {
      OFFSET 0 23.15396 4.99043
      CHANNELS 3 Zrotation Xrotation Yrotation
      JOINT spine2
      {
        OFFSET 0 20.79997 -5.064912
        CHANNELS 3 Zrotation Xrotation Yrotation
        JOINT neck
        {
          OFFSET 0 14.38658 9.616178
          CHANNELS 3 Zrotation Xrotation Yrotation
          End Site
          {
            OFFSET 0 20 0
          }
        }
      }
      JOINT right_manubrium
      {
        OFFSET -5.722621 16.35077 3.967754
        CHANNELS 3 Zrotation Xrotation Yrotation
        JOINT right_clavicle
        {
          OFFSET -13.16364 1.694482 -4.693211
          CHANNELS 3 Zrotation Xrotation Yrotation
          JOINT right_humerus
          {
            OFFSET -28.5034 -0.3100689 -2.792744
            CHANNELS 3 Zrotation Xrotation Yrotation
            JOINT right_radius
            {
              OFFSET -25.15693 0.02248979 -1.271978
              CHANNELS 3 Zrotation Xrotation Yrotation
              End Site
              {
                OFFSET -15 0 0
              }
            }
          }
        }
      }
      JOINT left_manubrium
      {
        OFFSET 5.722621 16.35077 3.967754
        CHANNELS 3 Zrotation Xrotation Yrotation
        JOINT left_clavicle
        {
          OFFSET 13.16364 1.694482 -4.693211
          CHANNELS 3 Zrotation Xrotation Yrotation
          JOINT left_humerus
          {
            OFFSET 29.39168 -1.063119 -2.237045
            CHANNELS 3 Zrotation Xrotation Yrotation
            JOINT left_radius
            {
              OFFSET 24.59957 -0.9528479 0.9047498
              CHANNELS 3 Zrotation Xrotation Yrotation
              End Site
              {
                OFFSET 15 -0 -0
              }
            }
          }
        }
      }
    }
  }
}
MOTION
Frames: 21
Frame Time: 0.0416666666667
-155.0922 104.8805 3095.587 -1.635008 -8.87855 -14.64629 5.462014 8.869204 3.343679 -0 10.16407 -0 -5.342108 -9.114165 -3.811202 0.5214545 -17.72877 -3.480333 -0 44.34255 -0 -4.377215 -6.019113 18.89605 0.2548621 -0.9448438 7.515452 1.158352 13.82587 -7.798665 1.870008 21.58839 -1.140661 -3.5 -22.6721 4.984397 -5.525071 -32.9117 12.21498 92.77777 23.96439 -10.09886 -0 0 27.43368 -18.36541 8.544561 8.578593 0.8273199 -17.79504 -4.104348 -88.8828 11.06068 32.88707 0 0 -4.515441 13.73434 16.83207 -8.150779
-156.1898 104.2323 3101.125 -1.775646 -7.904228 -15.32492 5.356679 11.86543 3.430457 -0 10.12739 -0 -4.565071 -11.79108 -2.995132 1.995469 -21.74278 -2.622221 -0 34.07661 -0 -4.386886 -6.146383 19.13559 0.4574033 -1.20212 7.88243 0.988896 14.01282 -7.53727 1.875947 20.94676 -1.596745 -3.806665 -21.9536 4.620446 -5.11952 -33.67767 12.09497 91.80794 24.00769 -8.717362 -0 0 28.97528 -18.29276 10.12179 10.04982 0.3994981 -17.79756 -4.470879 -89.11772 11.10369 34.70525 0 0 -5.78813 12.17214 16.63967 -5.208664
-157.2134 103.213 3106.922 -2.024531 -6.884656 -15.97877 5.218259 14.46791 3.437582 -0 10.92333 -0 -3.634279 -14.03658 -2.205322 3.132564 -24.27414 -2.04179 -0 24.80387 -0 -4.453247 -5.965435 19.10298 0.6267452 -1.475366 8.225057 0.8148038 14.15322 -7.280569 1.859197 20.3274 -1.915207 -4.02909 -21.30628 4.326833 -4.817253 -34.30054 11.95339 90.9611 24.03198 -7.493235 -0 0 30.30884 -18.28837 11.56018 11.45377 0.03831366 -17.83106 -4.756419 -89.34527 11.09599 36.39175 0 0 -7.18548 10.63739 16.35355 -2.328819
-158.1842 102.0638 3113.095 -2.119312 -6.080932 -16.62745 4.702568 16.83985 3.367449 -0 12.76351 -0 -2.615472 -15.11182 -1.481754 3.349157 -25.4491 -2.122803 -0 18.30183 -0 -4.528933 -5.755723 18.94335 0.751455 -1.724141 8.525095 0.6422997 14.25677 -7.038267 1.832027 19.80126 -2.089146 -4.167649 -20.7822 4.128924 -4.644704 -34.73808 11.79956 90.34468 24.08646 -6.545122 -0 0 31.28808 -18.29323 12.70568 12.65106 -0.2643097 -17.88285 -4.972926 -89.53201 11.06609 37.82352 0 0 -8.631727 9.261259 15.98555 0.2746069
-159.1308 101.0529 3119.709 -1.862711 -5.688643 -17.22004 3.616209 18.83627 3.250253 -0 16.12138 -0 -1.703197 -14.25821 -0.9127672 2.338795 -25.3851 -3.034215 -0 15.40069 -0 -4.486171 -5.848344 18.82936 0.8298714 -1.911327 8.763811 0.4836532 14.33713 -6.82355 1.807627 19.42619 -2.13368 -4.232189 -20.41693 4.03661 -4.598101 -34.97012 11.65215 90.02051 24.20027 -5.955516 -0 0 31.81999 -18.25223 13.4628 13.5228 -0.5147757 -17.94422 -5.140976 -89.65291 11.05003 38.88582 0 0 -10.01854 8.165745 15.57291 2.393975
-160.0839 100.4303 3126.727 -1.274241 -5.802689 -17.62934 2.096403 19.99537 3.119811 -0 21.53577 -0 -1.147732 -11.129 -0.6402107 0.3050372 -24.09314 -4.581802 -0 15.73592 -0 -4.192461 -6.421278 18.87498 0.8682188 -2.015037 8.923872 0.3560711 14.41107 -6.653174 1.797569 19.23432 -2.078401 -4.236093 -20.22083 4.044561 -4.644764 -34.99502 11.53613 89.99879 24.37465 -5.763473 -0 0 31.87144 -18.12863 13.81248 13.99543 -0.7153069 -18.01984 -5.28527 -89.69071 11.07551 39.48651 0 0 -11.24397 7.438902 15.17355 3.871865
-161.0627 100.3718 3133.982 -0.6044413 -6.379031 -17.70033 0.5998053 19.72001 2.962875 -0 29.12293 -0 -1.089491 -6.172599 -0.7609864 -2.083853 -21.54573 -6.281298 -0 17.90337 -0 -3.612298 -7.395962 19.04977 0.8759704 -2.032409 8.991915 0.2774369 14.49412 -6.544962 1.80956 19.2299 -1.956713 -4.191792 -20.18149 4.136687 -4.73995 -34.8252 11.47508 90.25106 24.58668 -5.967472 -0 0 31.46102 -17.91262 13.79553 14.04953 -0.864035 -18.12529 -5.427049 -89.63438 11.15007 39.57167 0 0 -12.23707 7.122717 14.85195 4.623652
-162.0566 100.9217 3141.207 -0.1741609 -7.236903 -17.34167 -0.365165 17.57859 2.727023 -0 38.07216 -0 -1.476956 -0.6124505 -1.249217 -4.064108 -17.83007 -7.646921 -0 20.12593 -0 -2.850412 -8.526249 19.18293 0.8613647 -1.975745 8.960676 0.2615458 14.59318 -6.513908 1.845604 19.39512 -1.795928 -4.108045 -20.27506 4.292117 -4.847252 -34.48373 11.48301 90.72691 24.79825 -6.531748 -0 0 30.64784 -17.62366 13.4795 13.71271 -0.9538402 -18.27593 -5.574175 -89.48128 11.25891 39.13476 0 0 -12.95445 7.217304 14.66253 4.630797
-163.0221 101.9645 3148.126 -0.1592748 -8.127957 -16.59038 -0.5814885 13.54035 2.39738 -0 46.60787 -0 -2.147878 4.087146 -1.981315 -5.202549 -13.229 -8.467875 -0 21.10321 -0 -2.084059 -9.611929 19.08482 0.8288555 -1.865467 8.830256 0.3148287 14.7004 -6.568667 1.901061 19.69868 -1.611387 -3.988699 -20.47803 4.48999 -4.950813 -34.00198 11.56038 91.36455 24.96463 -7.392344 -0 0 29.52327 -17.30859 12.93076 13.04481 -0.9700316 -18.47563 -5.713424 -89.2427 11.3711 38.21683 0 0 -13.35862 7.694232 14.63782 3.91803
-163.9103 103.2497 3154.557 -0.499111 -8.82444 -15.59193 -0.2221853 7.995961 2.013554 -0 52.6134 -0 -2.939229 6.904006 -2.799704 -5.529318 -8.180193 -8.830796 -0 20.46635 -0 -1.445074 -10.63838 18.68106 0.7786063 -1.723362 8.608421 0.4349353 14.79233 -6.709342 1.965018 20.10397 -1.405395 -3.832932 -20.77432 4.712347 -5.056508 -33.4174 11.69505 92.09611 25.04161 -8.464024 -0 0 28.20316 -17.03545 12.20091 12.12242 -0.8899054 -18.71039 -5.809266 -88.94826 11.45053 36.90024 0 0 -13.39753 8.509294 14.78323 2.532935
-164.7034 104.4671 3160.461 -0.9728749 -9.173335 -14.52373 0.3402166 1.591954 1.592811 -0 54.51041 -0 -3.716206 7.596677 -3.563961 -5.360768 -3.162224 -8.936882 -0 18.6226 -0 -0.9703395 -11.7448 18.0332 0.7074568 -1.567381 8.309862 0.6108293 14.83473 -6.926709 2.022023 20.57534 -1.169752 -3.636954 -21.15687 4.945788 -5.185735 -32.77041 11.86637 92.85323 24.992 -9.650383 -0 0 26.8159 -16.88253 11.32487 11.02605 -0.6865235 -18.94824 -5.810492 -88.64501 11.46795 35.29821 0 0 -12.99995 9.609199 15.07604 0.5385636
-165.4295 105.3341 3165.934 -1.340168 -9.115715 -13.52921 0.7680662 -4.97986 1.078208 -0 51.80637 -0 -4.358884 6.587924 -4.182711 -5.05659 1.438311 -8.933808 -0 16.29506 -0 -0.642533 -13.09712 17.25856 0.6108511 -1.408534 7.954534 0.8242322 14.7915 -7.202905 2.054934 21.08161 -0.8905485 -3.396957 -21.62527 5.182292 -5.36605 -32.10086 12.05005 93.57544 24.79206 -10.85671 -0 0 25.4855 -16.92268 10.32613 9.831534 -0.3369984 -19.14458 -5.663494 -88.38918 11.41053 33.54185 0 0 -12.09267 10.93122 15.46777 -1.979617
-166.1482 105.6592 3171.158 -1.440235 -8.686065 -12.69065 0.8751408 -11.12604 0.3748899 -0 45.10868 -0 -4.774247 4.642233 -4.619177 -4.874899 5.419507 -8.868841 -0 14.14937 -0 -0.4470863 -14.77059 16.45135 0.4853026 -1.250475 7.56558 1.052448 14.63517 -7.5137 2.04866 21.59667 -0.5546413 -3.112853 -22.17965 5.418866 -5.620996 -31.44455 12.22267 94.21918 24.43804 -12.00238 -0 0 24.313 -17.2039 9.225772 8.605992 0.1661235 -19.25244 -5.329662 -88.23123 11.28555 31.76534 0 0 -10.63767 12.39846 15.892 -4.89802
-166.9262 105.3692 3176.338 -1.227234 -7.994416 -12.02814 0.6487643 -16.40449 -0.565491 -0 35.80311 -0 -4.933234 2.575903 -4.881377 -4.927015 8.772293 -8.725294 -0 12.65633 -0 -0.395934 -16.68338 15.65735 0.3308432 -1.092145 7.167521 1.272395 14.35692 -7.832214 1.994478 22.09766 -0.1573022 -2.791926 -22.81188 5.655476 -5.960204 -30.83093 12.36557 94.76339 23.95283 -13.02932 -0 0 23.36059 -17.72967 8.052871 7.407706 0.8036941 -19.23688 -4.802873 -88.19832 11.11609 30.09032 0 0 -8.678616 13.91656 16.27952 -8.041462
-167.8229 104.5112 3181.67 -0.7684232 -7.194264 -11.51017 0.2401001 -20.52174 -1.668422 -0 25.66423 -0 -4.897384 1.063314 -5.014496 -5.18283 11.60996 -8.475308 -0 12.13382 -0 -0.52376 -18.57822 14.88683 0.1527626 -0.9327092 6.784988 1.465036 13.97372 -8.133334 1.894085 22.56258 0.290565 -2.451029 -23.49626 5.891435 -6.371488 -30.28217 12.46804 95.20817 23.38973 -13.90402 -0 0 22.64396 -18.44585 6.853138 6.288214 1.524498 -19.09001 -4.120778 -88.28186 10.93051 28.61176 0 0 -6.374834 15.37871 16.57821 -11.18527
-168.887 103.2427 3187.311 -0.2270792 -6.445924 -11.07534 -0.06445627 -23.31502 -2.707274 -0 16.52086 -0 -4.811488 0.5071211 -5.091243 -5.498234 14.05649 -8.115282 -0 12.85623 -0 -0.8693768 -20.04388 14.14101 -0.0379428 -0.7763994 6.441708 1.618749 13.52923 -8.397401 1.761576 22.96949 0.7586134 -2.116043 -24.18513 6.121458 -6.818109 -29.81417 12.52885 95.5661 22.82836 -14.61309 -0 0 22.1375 -19.24364 5.691877 5.294612 2.250821 -18.84011 -3.363022 -88.43778 10.7516 27.38917 0 0 -3.996273 16.6814 16.76874 -14.08093
-170.1565 101.8157 3193.363 0.1725124 -5.886627 -10.6694 0.07996862 -24.73237 -3.35153 -0 9.942936 -0 -4.853476 0.9461015 -5.185916 -5.66259 16.12889 -7.678586 -0 15.14233 -0 -1.440398 -20.58608 13.44524 -0.2255349 -0.6339233 6.159213 1.730086 13.08621 -8.611597 1.621397 23.29809 1.199447 -1.818451 -24.81416 6.333433 -7.244152 -29.43961 12.55504 95.85 22.3591 -15.15413 -0 0 21.7934 -19.98311 4.648541 4.470261 2.895179 -18.54642 -2.634228 -88.60225 10.59222 26.44808 0 0 -1.86611 17.74409 16.86594 -16.49927
-171.65 100.546 3199.85 0.2139589 -5.61552 -10.29274 0.9300957 -24.79667 -3.302724 -0 6.871132 -0 -5.150512 2.024321 -5.337788 -5.478058 17.64615 -7.225889 -0 19.35401 -0 -2.17004 -19.77482 12.88213 -0.3915771 -0.518699 5.955179 1.801521 12.7117 -8.768601 1.501906 23.53311 1.557315 -1.590385 -25.31686 6.509273 -7.587751 -29.17246 12.55801 96.06341 22.05956 -15.52567 -0 0 21.56842 -20.53166 3.80384 3.853018 3.380834 -18.27821 -2.03796 -88.7165 10.45965 25.79342 0 0 -0.2680839 18.52048 16.90438 -18.27154
-173.3482 99.75346 3206.696 -0.2074518 -5.692351 -10.03247 2.479135 -23.54743 -2.472081 -0 7.232579 -0 -5.699036 3.09004 -5.534175 -4.870544 18.2124 -6.811626 -0 25.74635 -0 -2.911088 -17.46967 12.59346 -0.5176684 -0.4401636 5.841958 1.837421 12.46049 -8.8639 1.426901 23.66717 1.779782 -1.459956 -25.64123 6.628345 -7.797416 -29.0317 12.54865 96.19781 21.97262 -15.71961 -0 0 21.44718 -20.80146 3.224782 3.472059 3.656436 -18.08683 -1.652768 -88.74854 10.36322 25.42926 -0 0 0.638609 18.99464 16.91834 -19.3094
-175.1779 99.6677 3213.721 -0.9928887 -6.135817 -10.04078 4.371272 -21.00331 -1.084574 -0 9.817335 -0 -6.346324 3.469244 -5.730154 -3.976507 17.32593 -6.444225 -0 34.15368 -0 -3.5076 -14.02542 12.72254 -0.5886015 -0.3993775 5.825833 1.84054 12.36292 -8.894087 1.408858 23.70071 1.828182 -1.447503 -25.75992 6.671543 -7.844709 -29.04166 12.5338 96.23526 22.09571 -15.71801 -0 0 21.45246 -20.77104 2.954679 3.345793 3.701178 -17.98661 -1.517995 -88.70176 10.31727 25.37369 -0 0 0.8556656 19.16747 16.9293 -19.59974
-177.0274 100.329 3220.68 -1.849318 -6.906936 -10.44533 6.030422 -17.21081 0.4126846 -0 12.74629 -0 -6.869345 2.812193 -5.87608 -3.094454 14.60401 -6.089604 -0 43.64194 -0 -3.894581 -10.27943 13.33105 -0.5953149 -0.3906982 5.906882 1.810928 12.42008 -8.857441 1.446404 23.63827 1.684751 -1.562145 -25.67064 6.62458 -7.728458 -29.2271 12.51533 96.1517 22.38462 -15.49476 -0 0 21.63961 -20.48433 3.012299 3.482864 3.523877 -17.95491 -1.630299 -88.60898 10.33572 25.65865 -0 0 0.5194045 19.04455 16.94503 -19.18457
